<svg xmlns="http://www.w3.org/2000/svg" width="1401" height="360" fill="none"><path fill="#428EFF" stroke="#202124" stroke-linecap="round" stroke-linejoin="round" stroke-width="2" d="M659.33 199.312c121.403-23.469 238.883-51.613 349.56-83.895 209.29-63.904 357.98-123.425 473.85-185.611v-234.232c-37.97 121.134-184.14 253.027-432.89 349.238-4.07 1.601-8.38 3.098-12.3 4.785C760.519 170.214 370.504 240.203-20.984 241.09v21.998c233.862-.758 467.356-22.004 680.314-63.776Z"/><path fill="#FF5145" stroke="#202124" stroke-linecap="round" stroke-linejoin="round" stroke-width="2" d="M851.691 199.613c2.999-.573 6.007-1.164 9.014-1.755 238.095-46.575 445.335-106.81 622.055-174.57v-93.49C1366.88-8.013 1218.19 51.513 1008.9 115.41c-110.672 32.282-228.159 60.432-349.554 83.895-212.967 41.772-446.453 63.012-680.315 63.776v18.253c299.431-.77 598.518-27.996 872.675-81.721h-.015Z"/><path fill="#DADCE0" stroke="#202124" stroke-linecap="round" stroke-linejoin="round" stroke-width="2" d="M851.691 199.616c-274.158 53.731-573.244 80.957-872.675 81.727v20.168c521.224-1.028 1041.954-63.745 1503.734-188.155v-90.06c-176.72 67.76-383.96 127.995-622.052 174.571-3.008.591-6.008 1.182-9.015 1.755l.008-.006Z"/></svg>